HIERARCHY
ROOT joint_0
{
	OFFSET 0.000000 0.000000 0.000000
	CHANNELS 6 Xposition Yposition Zposition Zrotation Yrotation Xrotation 
	JOINT joint_1
	{
		OFFSET 6.579712 -2.778931 100.531982
		CHANNELS 3 Zrotation Yrotation Xrotation
		JOINT joint_2
		{
			OFFSET -3.313232 -1.302856 91.974976
			CHANNELS 3 Zrotation Yrotation Xrotation
			JOINT joint_3
			{
				OFFSET -3.421509 -1.641846 91.864014
				CHANNELS 3 Zrotation Yrotation Xrotation
				JOINT joint_4
				{
					OFFSET 7.697388 -4.642578 123.278931
					CHANNELS 3 Zrotation Yrotation Xrotation
					JOINT joint_5
					{
						OFFSET 24.842529 -5.941528 79.695068
						CHANNELS 3 Zrotation Yrotation Xrotation
						End Site
						{
							OFFSET 0.000000 0.000000 0.000000
						}
					}
				}
				JOINT joint_6
				{
					OFFSET -0.159668 -29.112976 68.364014
					CHANNELS 3 Zrotation Yrotation Xrotation
					JOINT joint_7
					{
						OFFSET -18.356079 -115.987061 -20.069092
						CHANNELS 3 Zrotation Yrotation Xrotation
						JOINT joint_8
						{
							OFFSET 31.719482 -11.733276 -267.170898
							CHANNELS 3 Zrotation Yrotation Xrotation
							JOINT joint_9
							{
								OFFSET 29.329956 -5.879517 -234.654053
								CHANNELS 3 Zrotation Yrotation Xrotation
								End Site
								{
									OFFSET 0.000000 0.000000 0.000000
								}
							}
						}
					}
				}
				JOINT joint_10
				{
					OFFSET 8.802979 23.897949 69.798950
					CHANNELS 3 Zrotation Yrotation Xrotation
					JOINT joint_11
					{
						OFFSET 21.159058 115.524292 -19.981934
						CHANNELS 3 Zrotation Yrotation Xrotation
						JOINT joint_12
						{
							OFFSET 18.809204 5.403442 -268.593018
							CHANNELS 3 Zrotation Yrotation Xrotation
							JOINT joint_13
							{
								OFFSET 20.807861 0.421265 -235.639038
								CHANNELS 3 Zrotation Yrotation Xrotation
								End Site
								{
									OFFSET 0.000000 0.000000 0.000000
								}
							}
						}
					}
				}
			}
		}
	}
	JOINT joint_14
	{
		OFFSET -9.713379 -79.513916 -99.348022
		CHANNELS 3 Zrotation Yrotation Xrotation
		JOINT joint_15
		{
			OFFSET -40.607788 -6.518372 -502.938019
			CHANNELS 3 Zrotation Yrotation Xrotation
			JOINT joint_16
			{
				OFFSET -19.807617 -7.437378 -399.590012
				CHANNELS 3 Zrotation Yrotation Xrotation
				JOINT joint_17
				{
					OFFSET 171.701660 -44.751282 -77.782000
					CHANNELS 3 Zrotation Yrotation Xrotation
					End Site
					{
						OFFSET 0.000000 0.000000 0.000000
					}
				}
			}
		}
	}
	JOINT joint_18
	{
		OFFSET 17.854858 79.618652 -98.128052
		CHANNELS 3 Zrotation Yrotation Xrotation
		JOINT joint_19
		{
			OFFSET -24.848877 16.861816 -503.722992
			CHANNELS 3 Zrotation Yrotation Xrotation
			JOINT joint_20
			{
				OFFSET -30.162476 14.470093 -398.750008
				CHANNELS 3 Zrotation Yrotation Xrotation
				JOINT joint_21
				{
					OFFSET 176.096680 -10.987549 -80.021000
					CHANNELS 3 Zrotation Yrotation Xrotation
					End Site
					{
						OFFSET 0.000000 0.000000 0.000000
					}
				}
			}
		}
	}
}
MOTION
Frames: 5
Frame Time: 0.016667
-2176.041748 815.910950 1106.594971 -3.424116 6.923096 0.552242 0.047560 -3.998670 -0.636574 0.158637 0.518786 0.067984 0.115997 -0.875578 -0.096421 -2.504327 -10.037335 5.660552 0.000000 0.000000 0.000000 -16.536515 23.583858 -10.971672 -7.652894 1.129414 -11.648065 -175.871639 -52.790448 -172.635009 0.000000 0.000000 0.000000 14.701991 11.580790 14.662880 12.043620 13.399541 12.606779 -177.363733 -43.181982 161.475826 0.000000 0.000000 0.000000 4.706593 -3.364865 -5.748021 3.396870 14.115996 5.570702 4.260812 -3.524393 0.906691 0.000000 0.000000 0.000000 2.299189 -1.439278 0.000585 2.678255 14.064914 2.569150 2.345408 -2.058526 0.861156 0.000000 0.000000 0.000000 
-2164.455078 817.284485 1105.791992 -4.871272 7.093432 0.123048 0.066209 -4.288247 -0.530220 0.282334 0.623999 0.018889 0.174752 -0.985753 -0.089636 -2.595100 -9.841698 6.098807 0.000000 0.000000 0.000000 -15.778679 19.174255 -11.878986 -5.957750 0.532652 -9.464579 -175.988964 -55.933873 -169.772125 0.000000 0.000000 0.000000 14.336781 11.711469 15.308969 14.788763 11.852787 12.470855 -176.695419 -38.808666 157.620461 0.000000 0.000000 0.000000 6.063460 -4.949712 -6.669634 4.438362 18.032656 7.647458 5.766145 -3.996640 1.390760 0.000000 0.000000 0.000000 2.321334 -1.693002 0.151395 2.804312 15.839101 2.794935 2.365130 -1.958263 0.866786 0.000000 0.000000 0.000000 
-2153.232422 818.300415 1104.496948 -6.290270 7.183735 -0.218566 -0.049412 -4.552031 -0.633051 0.361553 0.725490 0.075765 0.180415 -1.097046 -0.120105 -2.526193 -9.509770 6.517349 0.000000 0.000000 0.000000 -14.501430 14.152794 -12.103146 -3.951841 0.050570 -6.888487 -176.110082 -61.563316 -167.630652 0.000000 0.000000 0.000000 14.041270 12.099151 15.716236 16.176416 11.052575 11.605213 -176.220580 -36.148300 155.380839 0.000000 0.000000 0.000000 7.572710 -6.888750 -7.955830 5.584674 22.714061 10.336517 7.682054 -4.207830 2.078266 0.000000 0.000000 0.000000 2.252130 -1.910827 0.274731 2.867025 17.662965 2.914532 2.274121 -1.765368 0.832469 0.000000 0.000000 0.000000 
-2141.344238 819.420593 1103.358032 -7.518950 7.219645 -0.378781 -0.258448 -4.774068 -0.612473 0.431753 0.792047 0.116906 0.216491 -1.174964 -0.140903 -2.399858 -9.274441 6.714064 0.000000 0.000000 0.000000 -13.485528 10.260488 -11.856308 -3.265582 -0.727760 -5.473230 -176.125933 -65.792446 -165.629656 0.000000 0.000000 0.000000 14.046416 12.007511 15.843666 16.955106 10.678411 11.272053 -175.637538 -34.633457 153.757642 0.000000 0.000000 0.000000 8.485740 -8.896424 -9.461435 6.169966 27.384683 12.790710 8.977931 -4.289978 2.518126 0.000000 0.000000 0.000000 2.244052 -1.735404 0.207764 2.951586 18.801767 2.924093 2.229307 -1.417560 0.829441 0.000000 0.000000 0.000000 
-2128.259033 821.065735 1102.557983 -8.580692 7.078096 -0.325620 -0.546173 -4.919569 -0.239567 0.564918 0.846869 0.046257 0.375731 -1.212776 -0.108873 -2.333103 -9.226149 6.540990 0.000000 0.000000 0.000000 -13.178574 8.048515 -11.882806 -3.898301 -1.801173 -5.417614 -176.301807 -66.439194 -163.590264 0.000000 0.000000 0.000000 14.602843 11.445619 15.698728 17.638712 10.258206 11.924194 -174.780110 -34.416889 152.335060 0.000000 0.000000 0.000000 8.617699 -10.959775 -11.199130 6.003288 32.479675 14.790293 9.004000 -4.565984 2.394921 0.000000 0.000000 0.000000 2.459244 -0.788819 -0.194485 3.145737 18.823037 2.934232 2.417630 -1.000652 0.928113 0.000000 0.000000 0.000000 
